/* XPM */
static char *monkey[] = {
/* columns rows colors chars-per-pixel */
"58 64 240 2 ",
"   c #020101",
".  c #0B0B0A",
"X  c #191918",
"o  c #291B16",
"O  c #2D2D2C",
"+  c #4C160B",
"@  c #561D0C",
"#  c #4F1B12",
"$  c #5C220E",
"%  c #492312",
"&  c #5C2411",
"*  c #5C2718",
"=  c #64270E",
"-  c #65290F",
";  c #632612",
":  c #652A13",
">  c #6A2E13",
",  c #662D1B",
"<  c #712E16",
"1  c #6C3014",
"2  c #6A321C",
"3  c #723315",
"4  c #73341B",
"5  c #793818",
"6  c #7C3B1B",
"7  c #4E332C",
"8  c #652E22",
"9  c #693727",
"0  c #763A26",
"q  c #673B33",
"w  c #007F00",
"e  c #057F08",
"r  c #7A422B",
"t  c #6C4439",
"y  c #794637",
"u  c #7E503E",
"i  c #25485D",
"p  c #464544",
"a  c #595857",
"s  c #744C44",
"d  c #7A5349",
"f  c #6F5550",
"g  c #496B5D",
"h  c #5B7F5B",
"j  c #726954",
"k  c #706E6E",
"l  c #823D1D",
"z  c #843D23",
"x  c #89421E",
"c  c #93471F",
"v  c #854222",
"b  c #8B4523",
"n  c #8A4929",
"m  c #964A27",
"M  c #964E24",
"N  c #994E24",
"B  c #934C2A",
"V  c #965023",
"C  c #995024",
"Z  c #96522F",
"A  c #9D522A",
"S  c #864A37",
"D  c #8B4C32",
"F  c #944D37",
"G  c #8C5138",
"H  c #99553A",
"J  c #A05327",
"K  c #A45A35",
"L  c #AA613B",
"P  c #834E42",
"I  c #895747",
"U  c #975A44",
"Y  c #855B51",
"T  c #A55B43",
"R  c #9D6449",
"E  c #896558",
"W  c #966655",
"Q  c #956B5A",
"!  c #91735D",
"~  c #AB6345",
"^  c #A86649",
"/  c #B56A4B",
"(  c #B9714D",
")  c #A76C54",
"_  c #B36E53",
"`  c #A87359",
"'  c #AC745B",
"]  c #BB7353",
"[  c #B47B5C",
"{  c #B87859",
"}  c #8A6965",
"|  c #926C62",
" . c #887568",
".. c #957468",
"X. c #977974",
"o. c #A67B6B",
"O. c #B47B65",
"+. c #BB7C62",
"@. c #A57E72",
"#. c #C4744C",
"$. c #C67956",
"%. c #C37C5C",
"&. c #C17E62",
"*. c #008000",
"=. c #0A850B",
"-. c #0B850C",
";. c #128712",
":. c #148A14",
">. c #1B8E1B",
",. c #1F911F",
"<. c #238E22",
"1. c #249224",
"2. c #2B952B",
"3. c #2C962B",
"4. c #329633",
"5. c #349A34",
"6. c #3B9C3B",
"7. c #3DA03E",
"8. c #4C9A49",
"9. c #5D805D",
"0. c #688958",
"q. c #68995C",
"w. c #44A144",
"e. c #4BA54B",
"r. c #54A753",
"t. c #55A954",
"y. c #5BAC5B",
"u. c #61A35A",
"i. c #668466",
"p. c #729865",
"a. c #73956E",
"s. c #69AA65",
"d. c #78A66D",
"f. c #68B368",
"g. c #70B76F",
"h. c #7AA973",
"j. c #78B877",
"k. c #7AC07A",
"l. c #B9815E",
"z. c #868A6B",
"x. c #928A6C",
"c. c #8A8975",
"v. c #98877A",
"b. c #889778",
"n. c #97937C",
"m. c #AB826C",
"M. c #BB8468",
"N. c #A58476",
"B. c #B98A76",
"V. c #BC927A",
"C. c #87A87B",
"Z. c #82B67F",
"A. c #CE815E",
"S. c #D4845E",
"D. c #C98867",
"F. c #D48B65",
"G. c #D48866",
"H. c #DC8B64",
"J. c #D2946B",
"K. c #DB936D",
"L. c #C78D71",
"P. c #CA9576",
"I. c #D69A77",
"U. c #E48E66",
"Y. c #E3936B",
"T. c #EB956B",
"R. c #E9976B",
"E. c #F1996D",
"W. c #E49B74",
"Q. c #EC9D73",
"!. c #F39D71",
"~. c #F89F72",
"^. c #D8A37B",
"/. c #DAA37C",
"(. c #E9A478",
"). c #EDA47A",
"_. c #F6A274",
"`. c #F9A174",
"'. c #F6A57A",
"]. c #F4AC7B",
"[. c #938F86",
"{. c #A88C82",
"}. c #B98F81",
"|. c #A9958B",
" X c #B79889",
".X c #AA9A94",
"XX c #B29C95",
"oX c #96AF8C",
"OX c #88BB85",
"+X c #92BA8B",
"@X c #ACA791",
"#X c #ABA998",
"$X c #B7A49B",
"%X c #A5B59A",
"&X c #B9AAA6",
"*X c #B1B1AB",
"=X c #B9B3AB",
"-X c #C49B88",
";X c #DBA784",
":X c #C5A799",
">X c #D9B095",
",X c #E6AA85",
"<X c #E3AD84",
"1X c #F5AD82",
"2X c #EBB48B",
"3X c #EAB68B",
"4X c #F7B587",
"5X c #F4BA8D",
"6X c #ECB992",
"7X c #F4BE93",
"8X c #FABD91",
"9X c #C5B2A9",
"0X c #C8BBB8",
"qX c #87C387",
"wX c #94C994",
"eX c #97C897",
"rX c #A3C69F",
"tX c #B3C4AB",
"yX c #ACD5AC",
"uX c #B8D9B6",
"iX c #F4C08F",
"pX c #F9C397",
"aX c #FCC494",
"sX c #C8C6BD",
"dX c #C9CABD",
"fX c #EEC2A2",
"gX c #D4C8C5",
"hX c #D1CFCB",
"jX c #C6DBC2",
"kX c #DAD6D3",
"lX c #E2DCDA",
"zX c #C9E4C8",
"xX c #D3E2CE",
"cX c #D8E7D7",
"vX c #E3E6DD",
"bX c #EAE7E5",
"nX c #E9F4E9",
"mX c #F2F1ED",
"MX c #F4F5F2",
"NX c #FFFFFE",
/* pixels */
"*.*.*.*.*.*.*.*.*.*.*.*.*.*.*.*.*.*.*.*.w *.*.*.*.*.w *.w w w *.e *.*.*.*.*.*.*.*.*.*.*.*.*.*.*.*.*.*.*.*.*.*.*.*.*.",
"*.*.*.*.*.*.*.*.*.*.*.*.*.*.*.*.*.*.*.*.*.*.*.*.*.*.*.*.w =.*.*.w.e.:.*.*.*.*.*.*.*.*.*.*.*.*.*.*.*.*.*.*.*.*.*.*.*.",
"*.*.*.*.*.w *.*.*.*.*.w *.*.*.*.*.*.*.*.*.*.*.*.*.*.*.2.e.,.*.y.+XoX4.*.*.*.*.*.*.*.*.w *.*.*.*.*.*.*.w *.*.*.w *.*.",
"w *.*.*.*.*.*.*.*.*.*.*.w *.*.*.*.*.*.*.*.*.*.*.*.=.w.p.oX3.*.k.%X[.6.*.*.*.*.*.*.*.*.*.w *.*.*.*.*.*.*.*.*.*.*.w *.",
"*.*.*.*.*.*.*.*.*.*.*.*.*.*.*.*.*.*.w *.*.*.*.w 2.6.c.[.bXk.w.oXk b.-.*.*.*.*.*.*.*.*.*.*.*.*.*.*.*.*.*.*.*.*.*.*.*.",
"*.*.*.*.w *.*.*.*.*.*.*.*.*.*.*.*.*.*.*.*.*.*.=.j.v.f 0X0X.X .q X.j.*.*.*.w *.*.*.*.*.*.*.*.*.w *.*.w *.*.*.*.*.*.*.",
"*.*.*.*.*.*.*.*.*.*.*.w *.*.*.*.*.*.*.w w w 1.y.n.P s y , & & d lXrXt.>.w.3.*.*.*.*.*.*.*.*.*.*.*.*.*.*.*.*.*.*.*.*.",
"*.*.*.*.*.*.*.*.*.*.*.*.*.*.*.*.*.*.*.:.e.<.wX9XR n v b b 3 1 9 t X.dXg.MXuX*.w *.*.w *.*.*.*.*.*.*.*.*.*.*.*.*.*.*.",
"*.*.*.*.*.*.*.*.*.*.*.*.*.*.*.*.*.*.*.qXlXc.$X) J N N N N M b M v 1 q j 0XjX5.1.*.=.=.*.*.*.*.*.*.*.*.*.*.*.*.*.*.*.",
"*.*.*.*.*.*.*.*.*.*.*.*.*.*.*.*.*.*.1.tX..I H A C M N V N N N N C C x 5 0 E *XjX4.1.=.w *.*.*.*.*.*.*.*.*.*.*.*.*.*.",
"*.*.*.*.*.*.*.*.*.w *.*.*.*.w *.:.:.b.o.^ K N N N C V V N M M V N V C N N b 0 j =XzX6.,.*.*.*.*.*.*.*.*.*.*.*.*.*.*.",
"w *.*.*.*.*.*.*.*.*.*.*.*.*.*.-.qXb.W L N N N N N C V C M M V N V V V V N N m 3 t #XqXy.2.*.*.*.*.*.w *.*.*.*.*.*.*.",
"*.*.*.*.*.*.*.*.*.*.*.*.*.*.*.4.z.O./ N V V C C C C M M M V V V N V V N V V N V 6 8 j yXe.*.*.*.*.*.*.w *.*.*.*.*.w ",
"*.*.*.*.*.*.*.*.*.*.*.*.*.=.g.#XO.( N N V V V C M V V C V M M V V N V V N V V V V 6 , x.j.w.-.*.*.*.*.*.*.*.w *.*.*.",
"*.*.*.*.*.*.*.*.*.*.*.*.=.t.gXo.#.A N N N V M V M N M M C V N N V N V V V V V V V V 6 , |.cX5.*.*.*.*.*.*.*.*.*.*.*.",
"*.*.*.*.*.*.*.*.*.*.*.*.e.b.| $.N V V V N N N N M b b v C N c b c N N N V V V V V V b 3 8 =Xg.*.*.*.*.*.*.*.*.*.*.*.",
"*.*.*.*.*.*.*.*.w w w 1.uXd / K m N m M b b b b b l v v m b l l z b z z b n M N M A C 5 ; } j.*.*.*.*.*.*.*.*.*.*.*.",
"w *.*.*.*.*.w *.w w w 5.&XR #.N N m n G ) { +.' G S b n x v n G ) { D.&._ U D b M C C 6 > 9 p.w *.*.*.*.*.*.*.*.*.*.",
"*.*.*.*.*.*.w *.w w w 3.{.^ K N m U I.1X'.~.`.'.).G.U n B D M.(.`.`.'.'.'.).K.R n m C v 1 2 0.>.w *.*.w *.*.*.*.*.*.",
"*.*.*.*.*.4.>.-.w >.<.6.} K N m U ,XQ.~ U #.~.~.`.`.W.^ D I.'.`.`.`.T.T H / T.1X_ n C v 1 : j f.;.*.*.*.;.*.*.*.*.*.",
"*.*.*.w *.f.j.C.8.oXcX%XP A N D ;X~.H.%.G.H.!.~.!.~.`.Q.W.'.~.`.`.~.Y.G.H.%.H.`.Q.H m x 3 - t kXuXd.q.s.yX2.w w *.*.",
"*.*.*.3.,.0.v.B.B.B.|.$XU A M ^ ,X~.T.O.o.N.o.&.'.!.`.`.~.~.`.`.Q.' @.{.@.' Y.!.`.$.b b 3 > t 9X XP.L.V.XXr.2.=.*.*.",
"*.*.=.j.Z.N.).`.~.~.K.) 9 m b [ 1XT.} &XlXkXkXXXO.!.~.~.T.~.~.Q.| 9XkXlXmXsX| Y.`.H.m b > ; q G._._.`._.I.x.jX,.w *.",
"*.*.w e.%XL.`.E.T.T.`.Q.K m N l.1X' *XMX[.O p #XXXG.~.~.~.~.~.D.XX*X[.O k bXgXo.~.H.B l = 0 H.~.Q.U.U.!.`.-X+X:.:.*.",
"*.*.*.-.p.J.T.~ T U $.~.T.K M { ,Xo.hX*Xa O O X #XB.`.!.~.~.~.L.[.p k O X k mX{.T.H.b 4 : #.~.T.T U T ~ Q.-XrXzXxX5.",
"*.*.*.:.p.I.$.T ] / F U.~.#.v L I.{.bXp         k  X!.`.~.`.!.-Xa         X hX:XG.#.b > v T.~.~ T ( ] H Y.P.dXnXnX7.",
"*.*.*.wX=XP.F.~ _ $.~ #.~.U.m Z L.|.gXX         p -X!.~.~.~.!.-Xp         . =X9XD.K z < / !.U.U $.$.( ^ W.V.e.4.6.=.",
"*.*.*.e.oXV.J.~ G.Q.F.T E.!.K z ( N.=XO   .     a -XQ.U.H.H.Q.>Xa     .   X =XXX%.b < l $.E.#.^ (.(.S.^ (. XrX;.*.*.",
"*.*.*.y.j.N.W.$.].Y.F.F H.T.( z m ' $Xa.o # % o .X;X).Q.Q.Q.(.,X.X7 % % o k &XO.F z $ Z #.Y.K ^ S.(.(.A.I.0XnX<.*.*.",
"*.*.*.=.6.z.P.J.].).(.^ $.S.$.z 4 n ` :X.Xv.X.9X>XL.D.M.{ [ D.[  X9X{.{.&X=XB.P < ; @ F / G.H D.].].(.J.V.bXnX1.w *.",
"*.*.*.*.*.h.N.I.].].].A.( %.z G H C B ' @.$X>XfX;X` R <X5X2XR R ^.3X>X:XB.O.T z m z & * U ^ G (.].].(.P.=XNXzX>.*.*.",
"*.*.*.*.*.f.=XM.1X].).( ~ G q / C A J./.;X7XpXpX7XM.r P.5X/.G [ iXpX7X7X6XL.W./ m N 5 ; & U D J.].].W. XbXwXe.*.*.*.",
"*.*.*.*.*.w.qXb.m.].].D.R 8 ^ J C H 7X<X^.iXaX3XiXaXiXpX5XpXpXaXiX3X8X4X^.] _.S.m J l > + 9 U ).4XI.x.u.qX*.*.*.*.*.",
"*.*.*.*.*.*.e w.b.@.D.' y * / V M H 7XpX<X^.3XiXpXpXaXaX5XaXaXaXaX2X^.D.S.!.'.S.b N l > # # U [ M.$Xj.w *.*.*.*.*.*.",
"*.*.*.*.*.w *.-.7.wXoXv.c.s ^ J M D 3XpXaXiX3X^.^.^.(.3X3X3X;XI.D.M.F.T._._._.] b m 5 1 q j z.a.oXwXy.w *.*.*.*.*.*.",
"w *.*.*.*.*.*.w *.-.>.4.3.8.! A C b l.aXaXpXaXpX3X3X/.I.P.P.I.;X3X5X'._._._.Y.Z M M 1 * [.j.w.:.-.=.w w *.*.*.*.*.*.",
"*.*.*.*.*.*.*.*.w *.w w w 1.b.I n C n P.aXpXaXaXaXaXaXaXaXaXaXaXaX4X`.`._.H.K b M 4 &  .j.7.r.w w w *.*.*.*.*.*.*.*.",
"*.*.*.*.*.*.*.*.w *.*.*.*.*.6.|.Y 6 v v ' 3XaXaXaXaXaXaXaXaXaXaX4X`.`.Q.A.B z z 2 9 n.bXe.*.=.*.*.*.*.*.*.*.*.*.*.*.",
"*.*.*.*.*.*.*.*.*.*.*.*.*.>.qXnXrXz.d t : 9 W I.5XaXaXaX8X7X4X).`.!.&.S 8 8 y Y c.=XMXnXw.w w *.*.*.*.*.*.*.*.*.*.*.",
"*.*.*.*.*.*.*.*.w *.*.*.*.-.5.5.>.6.s.C.*X|. .q S _ D.K.K.J.J.[ T 0 + d 0XhXbXmXg.1.5.5.;.w w w *.*.*.*.*.*.*.*.*.*.",
"*.*.*.*.*.*.*.*.*.*.*.*.*.*.w w w w w >.6.t.j.t & & * * , 8 * + # ; ; t lXNXNXuX:.:.:.2.e.:.*.w *.*.*.*.*.*.*.*.*.*.",
"w *.*.*.*.*.w *.*.*.w *.*.*.*.*.*.w w w >.uX$Xz 3 1 1 & & & $ & 2 1 1 & v.NXNXkXC.z.! E | x.d.w.-.*.*.*.*.*.w *.*.*.",
"*.*.*.*.*.*.*.*.*.*.*.*.*.*.*.*.*.*.*.w y.bXm.C x 6 1 1 1 > > > > 3 6 3 q vXMX.X) H C Z m Z U n.y.*.*.*.*.*.*.*.*.*.",
"*.*.*.*.*.*.*.*.*.*.*.*.*.*.*.w *.*.*.w f.gX^ N M v 1 > > - > > > 4 n M , XX.XH b 3 : : : 3 z D z.j.qX*.*.*.*.*.*.*.",
"*.*.*.*.*.*.*.*.*.*.*.*.*.*.*.w *.*.*.w Z.}.L V c l > 2 r u u 9 : 1 Z V x q y 0 ; s &X0X|.q : l S dXt.*.*.*.*.*.*.*.",
"*.*.*.*.*.*.*.*.w *.*.*.*.*.*.*.*.*.*.f. ._ J C x > : S Q Q Q W r : m C C 6 , : s lXNXNXNXkXt < z v.3.*.*.*.*.*.*.*.",
"*.*.*.*.*.*.*.*.*.*.*.*.*.*.*.*.*.*.:.tXQ K C M 6 ; r Q E ! W W Y & b M M V = * 0XNXNXNXNXNXXX: 4 | f.*.*.*.*.*.*.*.",
"w *.*.*.*.*.w *.*.*.*.*.*.*.*.*.*.w e.$X_ J N 6 & $ u ..P./.^.m.E , 4 Z M N l 8 kXNXNXNXNXNX0X2 > ! qX*.*.w *.*.*.*.",
"*.*.*.*.*.*.*.*.*.*.*.*.*.*.*.*.*.*.g.Q K M N M 2 & I ^.8X4X5X3X` 8 m K N N N 2 |.NXNXNXNXNXXX4 - X.wXw *.*.*.*.*.*.",
"*.*.*.*.*.*.*.*.*.*.*.w *.*.*.*.*.;.%X) A N N N A , W 6XiXiXaXaX[ G L N N V N z X.NXNXNXNXhXI < : &XyXw *.*.w *.*.*.",
"*.*.*.*.*.*.*.*.*.*.*.w *.w *.*.*.=.b.) A N N N C D R iXaXiXaX5X' L N N N N M < [.mXbXgX|.P 0 ; s mXuXw *.*.*.*.*.*.",
"*.*.*.*.*.*.*.*.*.*.-.>.=.-.*.*.-.=.OXN.K N N N C V U (.aXaX5X{ H V N N N V 3 @ d W I 0 0 > $ 9 0XNXyX*.*.*.*.*.*.*.",
"*.*.*.*.*.*.*.*.*.*.6.rXj.qXy.*.6.j.uX|.G Z M C V V C ~ (.iXl.H C c C M M 0 + + $ ; - = @ @ t 0XNXNXyXw w *.*.*.*.*.",
"w *.*.*.*.*.*.*.*.=.r.%XlXnX7.*.6.jX@Xt # 0 M N c x n V U [ S x b v v M b & + + + + + * f |.bXNXMXmXwXe =.*.w *.*.*.",
"*.*.*.*.*.w *.*.5.C.n.-XB.dXOXOX[.` n v : : 3 c l Z { n 0 0 r D l.) Z 5 ; : 1 > , ; @ d gXNXNXNX0X X#X+Xg.*.w *.*.*.",
"*.*.*.*.*.*.*.-.d. XP.&.L.Q N. XW Z c 6 > : $ S l.^.6X;XM.0 M.<XiX<XJ.U & - 1 1 3 z m D W $XgXbX XI.o.:X+X=.*.*.*.*.",
"*.*.*.w w w w 6.oX+.M.) ) M.3X3X1XY.0 = > ; : ^.3XpX6X<XM.y L.,XiXiX5X;X, & > 1 > : ( Q.6X3XV.o.Q ' O.B.oX-.*.*.*.w ",
"*.*.*.*.*.w w g.:XL.' (.(.M.<XfX7X'.T : = ; I P.^.^.P.<X{ H ` ;X^.^.P.L.r & 1 1 : z T.'.7XfX>XO.;X,X' ` b.,.w *.*.*.",
"*.*.*.*.*.*.w >.d.m.U D.&.F.M.6X6X!.( : = & I { M.] &.{ ' 0 +._ A.] [ O.y * & > : D T.(.7X;X+.D.%.G.) L.#X1.w *.*.*.",
"*.*.*.*.*.*.*.w >.d.X.U _ %.D.O.W.D.n 2 q P E P ) ^ $.I Y Y Y U ] ) ^ I E E t q * ; ~ K.P.' G.&.~ P ..C.e.*.*.*.*.*.",
"*.*.*.*.w w *.*.w >.OX{.s R _ +.) Y } X.N.v.X...E E Y ....X.X.} E E } X.v.v.N.{.X.E E E +.&.' s Y 9XkX6.w w w *.*.*.",
"*.*.*.*.w w *.*.*.w ;.j.0X#X@XXXgXrXq.+Xh.%XtXp.p.oXoXp.oXd.p.d.p.p.q.d.tXjXOXj.6.3.uXbX#X|.$X0XhX+X5.=.w w *.*.*.*.",
"e =.*.e e =.=.*.*.=.-.1.6.t.y.f.wXw.3.-.e 6.8.e 3.jXyX:.-.e =.-.e -.-.e 1.r.OXf.=.e w.y.6.4.5.t.j.:.*.*.=.e =.e *.=.",
"h 9.9.9.h h h 9.9.h h h h i.i.h i.i.i.h h h h h h a.a.h g i h h h h 9.9.h h a.[.h h h h h h h 9.9.9.9.9.h h h h h h "
};
